<svg xmlns="http://www.w3.org/2000/svg" version="1.1" xmlns:xlink="http://www.w3.org/1999/xlink" xmlns:svgjs="http://svgjs.dev/svgjs" width="156.524" height="106.603"><svg id="SvgjsSvg1292" data-name="Layer 2" xmlns="http://www.w3.org/2000/svg" width="156.524" height="106.603" viewBox="0 0 156.524 106.603">
  <g id="SvgjsG1291" data-name="Layer 2">
    <path d="m135.779,31.353c6.533-3.076,13.564-4.678,20.745-5.611V.065h-78.981v-.065H20.839v31.217c10.212,3.44,21.401,4.005,31.876,1.452-9.608,14.529-28.779,20.155-46.139,18.201L0,98.381l16.727,5.529c3.261,1.133,5.954,1.56,8.79,1.985,2.836.425,5.529.565,8.365.708,4.961-.142,10.348-.568,15.735-2.268,3.969-1.275,8.222-3.261,11.908-6.097,5.669-4.251,10.206-10.488,12.616-17.01,1.894-4.843,2.848-9.763,3.215-14.82v36.752h55.513v-24.748h22.014v-25.432l.004-2.933c-4.814-1.531-8.262-2.212-13.305-1.909-10.333.622-20.368,5.308-27.478,12.832.124-12.903,10.001-24.12,21.674-29.618Z" fill="#7363a5" stroke-width="0"></path>
  </g>
</svg><style>@media (prefers-color-scheme: light) { :root { filter: contrast(1) brightness(0.1); } }
@media (prefers-color-scheme: dark) { :root { filter: none; } }
</style></svg>